<svg viewBox="0 0 24 24" xmlns="http://www.w3.org/2000/svg"><path d="M19 0H5a5.006 5.006 0 0 0-5 5v14a5.006 5.006 0 0 0 5 5h14a5.006 5.006 0 0 0 5-5V5a5.006 5.006 0 0 0-5-5Zm3 19a3 3 0 0 1-3 3H5a3 3 0 0 1-3-3V5a3 3 0 0 1 3-3h14a3 3 0 0 1 3 3Z" fill="#ffffff" class="fill-232323"></path><path d="M7 10a3 3 0 1 0-3-3 3 3 0 0 0 3 3Zm0-4a1 1 0 1 1-1 1 1 1 0 0 1 1-1ZM16.707 10.293a.956.956 0 0 0-.74-.293 1.006 1.006 0 0 0-.72.341l-3.03 3.459-2.51-2.511a1 1 0 0 0-1.414 0l-4 4a1 1 0 1 0 1.414 1.414L9 13.414l1.9 1.9-2.653 3.027a1 1 0 0 0 1.506 1.318l3.218-3.678h.006l.007-.011 3.065-3.5 2.244 2.244a1 1 0 0 0 1.414-1.414Z" fill="#ffffff" class="fill-232323"></path></svg>